<svg width="24" height="24" viewBox="0 0 24 24" fill="none" xmlns="http://www.w3.org/2000/svg">
<path d="M7.75501 13.38V20.21C7.75501 20.6184 7.59276 21.0101 7.30396 21.2989C7.01515 21.5878 6.62345 21.75 6.21501 21.75H4.40501C4.20194 21.7513 4.00061 21.7125 3.81261 21.6357C3.62461 21.5589 3.45366 21.4456 3.3096 21.3025C3.16554 21.1594 3.0512 20.9891 2.97319 20.8017C2.89517 20.6142 2.85501 20.4131 2.85501 20.21V13.38C2.85368 13.1761 2.89287 12.9739 2.97029 12.7853C3.04772 12.5966 3.16184 12.4252 3.30604 12.281C3.45023 12.1368 3.62163 12.0227 3.81029 11.9453C3.99894 11.8679 4.20109 11.8287 4.40501 11.83H6.21501C6.41809 11.83 6.61917 11.8702 6.80666 11.9482C6.99416 12.0262 7.16437 12.1405 7.30751 12.2846C7.45064 12.4286 7.56387 12.5996 7.64067 12.7876C7.71747 12.9756 7.75633 13.1769 7.75501 13.38ZM14.455 3.8V20.21C14.455 20.4131 14.4149 20.6142 14.3368 20.8017C14.2588 20.9891 14.1445 21.1594 14.0004 21.3025C13.8564 21.4456 13.6854 21.5589 13.4974 21.6357C13.3094 21.7125 13.1081 21.7513 12.905 21.75H11.095C10.6857 21.75 10.2929 21.5881 10.0025 21.2996C9.71212 21.011 9.54765 20.6193 9.54501 20.21V3.8C9.54764 3.38972 9.71178 2.997 10.0019 2.70688C10.292 2.41677 10.6847 2.25262 11.095 2.25H12.905C13.3161 2.25 13.7103 2.4133 14.001 2.70398C14.2917 2.99467 14.455 3.38891 14.455 3.8ZM21.145 8.98V20.21C21.145 20.6184 20.9828 21.0101 20.694 21.2989C20.4052 21.5878 20.0134 21.75 19.605 21.75H17.795C17.5919 21.7513 17.3906 21.7125 17.2026 21.6357C17.0146 21.5589 16.8437 21.4456 16.6996 21.3025C16.5555 21.1594 16.4412 20.9891 16.3632 20.8017C16.2852 20.6142 16.245 20.4131 16.245 20.21V8.98C16.245 8.77645 16.2851 8.5749 16.363 8.38684C16.4409 8.19879 16.5551 8.02792 16.699 7.88398C16.8429 7.74005 17.0138 7.62588 17.2019 7.54799C17.3899 7.47009 17.5915 7.43 17.795 7.43H19.645C20.0474 7.44299 20.4289 7.612 20.7088 7.90129C20.9888 8.19058 21.1452 8.57743 21.145 8.98Z" fill="url(#paint0_linear_832_559)"/>
<defs>
<linearGradient id="paint0_linear_832_559" x1="2.85498" y1="12" x2="21.145" y2="12" gradientUnits="userSpaceOnUse">
<stop stop-color="#4C65E3"/>
<stop offset="1" stop-color="#D75BE3"/>
</linearGradient>
</defs>
</svg>
