<svg width="24" height="24" viewBox="0 0 24 24" fill="none" xmlns="http://www.w3.org/2000/svg">
<path d="M8.50998 2H15.49C15.722 2 15.9 2 16.056 2.015C17.164 2.124 18.071 2.79 18.456 3.687H5.54398C5.92898 2.79 6.83598 2.124 7.94398 2.015C8.09798 2 8.27598 2 8.50998 2ZM6.30998 4.723C4.91998 4.723 3.77998 5.563 3.39998 6.677L3.37598 6.747C3.77398 6.627 4.18898 6.547 4.60798 6.494C5.68798 6.355 7.05398 6.355 8.63998 6.355H15.532C17.118 6.355 18.483 6.355 19.564 6.494C19.984 6.548 20.398 6.626 20.796 6.747L20.773 6.677C20.393 5.563 19.253 4.723 17.862 4.723H6.30998Z" fill="url(#paint0_linear_849_18)"/>
<path fill-rule="evenodd" clip-rule="evenodd" d="M8.67196 7.54199H15.328C18.702 7.54199 20.39 7.54199 21.338 8.52899C22.286 9.51599 22.062 11.04 21.616 14.089L21.194 16.981C20.844 19.372 20.669 20.568 19.772 21.284C18.875 22 17.552 22 14.905 22H9.09496C6.44896 22 5.12496 22 4.22796 21.284C3.33096 20.568 3.15596 19.372 2.80596 16.981L2.38396 14.09C1.93696 11.04 1.71396 9.51599 2.66196 8.52899C3.60996 7.54199 5.29796 7.54199 8.67196 7.54199ZM7.99996 18C7.99996 17.586 8.37296 17.25 8.83296 17.25H15.167C15.627 17.25 16 17.586 16 18C16 18.414 15.627 18.75 15.167 18.75H8.83296C8.37296 18.75 7.99996 18.414 7.99996 18Z" fill="url(#paint1_linear_849_18)"/>
<defs>
<linearGradient id="paint0_linear_849_18" x1="3.37598" y1="4.3735" x2="20.796" y2="4.3735" gradientUnits="userSpaceOnUse">
<stop stop-color="#4C65E3"/>
<stop offset="1" stop-color="#D75BE3"/>
</linearGradient>
<linearGradient id="paint1_linear_849_18" x1="1.99963" y1="14.771" x2="21.9999" y2="14.771" gradientUnits="userSpaceOnUse">
<stop stop-color="#4C65E3"/>
<stop offset="1" stop-color="#D75BE3"/>
</linearGradient>
</defs>
</svg>
