<svg width="24" height="24" viewBox="0 0 24 24" fill="none" xmlns="http://www.w3.org/2000/svg">
<path d="M5.6999 4.80005C4.82469 4.80005 3.98532 5.14773 3.36645 5.7666C2.74758 6.38547 2.3999 7.22483 2.3999 8.10005V9.60005H21.5999V8.10005C21.5999 7.22483 21.2522 6.38547 20.6334 5.7666C20.0145 5.14773 19.1751 4.80005 18.2999 4.80005H5.6999ZM21.5999 10.8H2.3999V15.9C2.3999 16.7753 2.74758 17.6146 3.36645 18.2335C3.98532 18.8524 4.82469 19.2 5.6999 19.2H18.2999C19.1751 19.2 20.0145 18.8524 20.6334 18.2335C21.2522 17.6146 21.5999 16.7753 21.5999 15.9V10.8ZM16.1999 15.6H18.5999C18.759 15.6 18.9116 15.6633 19.0242 15.7758C19.1367 15.8883 19.1999 16.0409 19.1999 16.2C19.1999 16.3592 19.1367 16.5118 19.0242 16.6243C18.9116 16.7368 18.759 16.8 18.5999 16.8H16.1999C16.0408 16.8 15.8882 16.7368 15.7756 16.6243C15.6631 16.5118 15.5999 16.3592 15.5999 16.2C15.5999 16.0409 15.6631 15.8883 15.7756 15.7758C15.8882 15.6633 16.0408 15.6 16.1999 15.6Z" fill="#C0C1C3"/>
</svg>
