<svg width="19" height="19" viewBox="0 0 19 19" fill="none" xmlns="http://www.w3.org/2000/svg">
<path d="M5.40471 4.8887C5.2622 5.11426 5.07207 5.3059 4.84764 5.45018C4.62322 5.59446 4.36994 5.68789 4.10558 5.72391C3.80475 5.76666 3.50629 5.81258 3.20783 5.86245C2.37421 6.001 1.78125 6.73487 1.78125 7.57958V14.2502C1.78125 14.7226 1.96892 15.1756 2.30297 15.5097C2.63702 15.8437 3.09008 16.0314 3.5625 16.0314H15.4375C15.9099 16.0314 16.363 15.8437 16.697 15.5097C17.0311 15.1756 17.2188 14.7226 17.2188 14.2502V7.57958C17.2188 6.73487 16.625 6.001 15.7922 5.86245C15.4935 5.81269 15.1942 5.7665 14.8944 5.72391C14.6302 5.68778 14.3771 5.5943 14.1528 5.45002C13.9285 5.30575 13.7385 5.11416 13.5961 4.8887L12.9453 3.84687C12.7992 3.60945 12.598 3.41074 12.3587 3.26756C12.1195 3.12438 11.8493 3.04095 11.571 3.02433C10.1913 2.95022 8.80867 2.95022 7.429 3.02433C7.15069 3.04095 6.88049 3.12438 6.64126 3.26756C6.40203 3.41074 6.20082 3.60945 6.05467 3.84687L5.40471 4.8887Z" stroke="white" stroke-width="1.5" stroke-linecap="round" stroke-linejoin="round"/>
<path d="M13.0625 10.0938C13.0625 11.0386 12.6872 11.9447 12.0191 12.6128C11.351 13.2809 10.4448 13.6563 9.5 13.6563C8.55517 13.6563 7.64903 13.2809 6.98093 12.6128C6.31283 11.9447 5.9375 11.0386 5.9375 10.0938C5.9375 9.14892 6.31283 8.24278 6.98093 7.57468C7.64903 6.90658 8.55517 6.53125 9.5 6.53125C10.4448 6.53125 11.351 6.90658 12.0191 7.57468C12.6872 8.24278 13.0625 9.14892 13.0625 10.0938ZM14.8437 8.3125H14.8501V8.31883H14.8437V8.3125Z" stroke="white" stroke-width="1.5" stroke-linecap="round" stroke-linejoin="round"/>
</svg>
