<svg width="16" height="20" viewBox="0 0 16 20" fill="none" xmlns="http://www.w3.org/2000/svg">
<path d="M8 0L8.117 0.00699997C8.34022 0.0333238 8.54806 0.134079 8.70699 0.293011C8.86592 0.451943 8.96668 0.659783 8.993 0.883L9 1V5L9.005 5.15C9.04078 5.62617 9.24576 6.07383 9.58286 6.41203C9.91996 6.75023 10.3669 6.95666 10.843 6.994L11 7H15L15.117 7.007C15.3402 7.03332 15.5481 7.13408 15.707 7.29301C15.8659 7.45194 15.9667 7.65978 15.993 7.883L16 8V17C16 17.7652 15.7077 18.5015 15.1827 19.0583C14.6578 19.615 13.9399 19.9501 13.176 19.995L13 20H3C2.23479 20 1.49849 19.7077 0.941739 19.1827C0.384993 18.6578 0.0498925 17.9399 0.00500012 17.176L4.66045e-09 17V3C-4.26217e-05 2.23479 0.292325 1.49849 0.817284 0.941739C1.34224 0.384993 2.06011 0.0498925 2.824 0.00500011L3 0H8ZM8 8C7.73478 8 7.48043 8.10536 7.29289 8.29289C7.10536 8.48043 7 8.73478 7 9V9.05C6.39242 9.17337 5.85236 9.5181 5.48466 10.0173C5.11695 10.5164 4.94784 11.1344 5.01014 11.7512C5.07245 12.3681 5.36173 12.9398 5.82183 13.3553C6.28193 13.7709 6.88002 14.0006 7.5 14H8.5C8.63261 14 8.75979 14.0527 8.85355 14.1464C8.94732 14.2402 9 14.3674 9 14.5C9 14.6326 8.94732 14.7598 8.85355 14.8536C8.75979 14.9473 8.63261 15 8.5 15H6C5.73478 15 5.48043 15.1054 5.29289 15.2929C5.10536 15.4804 5 15.7348 5 16C5 16.2652 5.10536 16.5196 5.29289 16.7071C5.48043 16.8946 5.73478 17 6 17H7C7 17.2652 7.10536 17.5196 7.29289 17.7071C7.48043 17.8946 7.73478 18 8 18C8.26522 18 8.51957 17.8946 8.70711 17.7071C8.89464 17.5196 9 17.2652 9 17V16.95C9.60758 16.8266 10.1476 16.4819 10.5153 15.9827C10.883 15.4836 11.0522 14.8656 10.9899 14.2488C10.9275 13.6319 10.6383 13.0602 10.1782 12.6447C9.71807 12.2291 9.11998 11.9994 8.5 12H7.5C7.36739 12 7.24021 11.9473 7.14645 11.8536C7.05268 11.7598 7 11.6326 7 11.5C7 11.3674 7.05268 11.2402 7.14645 11.1464C7.24021 11.0527 7.36739 11 7.5 11H10C10.2652 11 10.5196 10.8946 10.7071 10.7071C10.8946 10.5196 11 10.2652 11 10C11 9.73478 10.8946 9.48043 10.7071 9.29289C10.5196 9.10536 10.2652 9 10 9H9C9 8.73478 8.89464 8.48043 8.70711 8.29289C8.51957 8.10536 8.26522 8 8 8Z" fill="#C0C1C3"/>
<path d="M15 5.00002H11L10.999 0.999023L15 5.00002Z" fill="#C0C1C3"/>
</svg>
