<svg width="20" height="20" viewBox="0 0 20 20" fill="none" xmlns="http://www.w3.org/2000/svg">
<path d="M17.5 2.5V12.9167C17.5 13.6902 17.1927 14.4321 16.6457 14.9791C16.0988 15.526 15.3569 15.8333 14.5834 15.8333C13.8098 15.8333 13.0679 15.526 12.521 14.9791C11.974 14.4321 11.6667 13.6902 11.6667 12.9167C11.6667 12.1431 11.974 11.4013 12.521 10.8543C13.0679 10.3073 13.8098 10 14.5834 10C15.0334 10 15.4584 10.1 15.8334 10.2833V5.39167L7.50002 7.16667V14.5833C7.50002 15.3569 7.19273 16.0987 6.64575 16.6457C6.09877 17.1927 5.3569 17.5 4.58335 17.5C3.80981 17.5 3.06794 17.1927 2.52096 16.6457C1.97398 16.0987 1.66669 15.3569 1.66669 14.5833C1.66669 13.8098 1.97398 13.0679 2.52096 12.5209C3.06794 11.974 3.80981 11.6667 4.58335 11.6667C5.03335 11.6667 5.45835 11.7667 5.83335 11.95V5L17.5 2.5Z" fill="#F1F0F1"/>
</svg>
