<svg width="24" height="24" viewBox="0 0 24 24" fill="none" xmlns="http://www.w3.org/2000/svg">
<g clip-path="url(#clip0_857_1775)">
<path fill-rule="evenodd" clip-rule="evenodd" d="M16.8206 1.08523C17.1343 -0.347915 19.176 -0.356486 19.5035 1.07494L19.5189 1.14351L19.5497 1.27551C19.9269 2.87837 21.2229 4.10237 22.8463 4.38523C24.3412 4.6458 24.3412 6.79208 22.8463 7.05266C22.0481 7.19193 21.3088 7.56378 20.7212 8.12157C20.1335 8.67936 19.7236 9.39825 19.5429 10.1881L19.5035 10.3629C19.1777 11.7944 17.1343 11.7858 16.8206 10.3509L16.7863 10.2001C16.6136 9.40753 16.2085 8.68447 15.6228 8.12323C15.0372 7.562 14.2975 7.18808 13.4983 7.04923C12.0052 6.79037 12.0052 4.64751 13.4983 4.38694C14.2946 4.24867 15.0319 3.877 15.6167 3.31909C16.2014 2.76118 16.6073 2.04216 16.7829 1.25323L16.8069 1.1418L16.8206 1.08523ZM6.41145 7.26866L10.536 6.12351C10.6869 7.40923 11.568 8.60923 13.1777 8.89037C14.0657 9.04466 14.772 9.72009 14.9657 10.6012L14.9983 10.7521L15.0206 10.8498L7.53431 12.9258V20.2424C7.53395 21.0353 7.28231 21.8078 6.81552 22.4487C6.34872 23.0897 5.6908 23.5663 4.93623 23.81C4.18167 24.0537 3.36928 24.052 2.61574 23.8051C1.86219 23.5583 1.20627 23.079 0.742168 22.436C0.278063 21.7931 0.0296557 21.0196 0.032619 20.2267C0.0355823 19.4337 0.289764 18.6621 0.758661 18.0227C1.22756 17.3832 1.88704 16.9088 2.64241 16.6676C3.39777 16.4264 4.21015 16.4307 4.96288 16.6801V9.15437C4.96617 8.72522 5.10941 8.30887 5.37085 7.96853C5.6323 7.62819 5.99765 7.38246 6.41145 7.26866ZM19.7949 12.8795C19.3694 13.1133 18.8987 13.2531 18.4146 13.2895C17.9305 13.3259 17.4442 13.258 16.9886 13.0904C16.434 12.9475 15.8542 12.9332 15.2932 13.0487C14.7323 13.1641 14.2052 13.4063 13.7522 13.7566C13.2992 14.1069 12.9322 14.5561 12.6793 15.0699C12.4265 15.5837 12.2944 16.1486 12.2932 16.7212C12.2804 17.716 12.6634 18.6751 13.3578 19.3875C14.0522 20.1 15.0012 20.5074 15.996 20.5201C16.9908 20.5328 17.9499 20.1498 18.6623 19.4554C19.3748 18.761 19.7821 17.812 19.7949 16.8172V12.8795Z" fill="white"/>
</g>
<defs>
<clipPath id="clip0_857_1775">
<rect width="24" height="24" fill="white"/>
</clipPath>
</defs>
</svg>
